<?xml version="1.0" standalone="no"?>
<!DOCTYPE svg PUBLIC "-//W3C//DTD SVG 20010904//EN"
 "http://www.w3.org/TR/2001/REC-SVG-20010904/DTD/svg10.dtd">
<svg version="1.0" xmlns="http://www.w3.org/2000/svg"
 width="100.000000pt" height="100.000000pt" viewBox="0 0 100.000000 100.000000"
 preserveAspectRatio="xMidYMid meet">

<g transform="translate(0.000000,100.000000) scale(0.100000,-0.100000)"
fill="#000000" stroke="none">
<path d="M411 989 c-199 -33 -369 -210 -401 -417 -42 -266 148 -520 418 -562
266 -42 520 148 562 418 41 262 -147 519 -410 561 -74 12 -94 12 -169 0z m49
-389 c0 -147 1 -160 19 -170 27 -14 37 -13 55 6 13 13 16 43 16 170 l0 154 65
0 65 0 0 -152 c0 -133 -3 -157 -21 -194 -29 -62 -88 -88 -176 -81 -74 6 -109
25 -135 78 -15 28 -18 61 -18 192 l0 157 65 0 65 0 0 -160z m360 -350 l0 -30
-300 0 -300 0 0 30 0 30 300 0 300 0 0 -30z"/>
</g>
</svg>
