<svg width="32" height="32" viewBox="0 0 32 32" fill="none" xmlns="http://www.w3.org/2000/svg">
<path d="M32 16C32 24.8366 24.8366 32 16 32C7.16344 32 0 24.8366 0 16C0 7.16344 7.16344 0 16 0C24.8366 0 32 7.16344 32 16Z" fill="#2563EB"/>
<path d="M7 23H26V25H7V23Z" fill="white"/>
<path d="M21.609 16.516C21.609 17.4407 21.4063 18.2703 21.001 19.005C20.5957 19.7397 19.9813 20.3223 19.158 20.753C18.3347 21.171 17.3213 21.38 16.118 21.38C14.3067 21.38 12.9387 20.943 12.014 20.069C11.0893 19.195 10.627 18.0107 10.627 16.516V7.776H14.541V16.402C14.541 17.1493 14.6613 17.7003 14.902 18.055C15.1553 18.397 15.5607 18.568 16.118 18.568C16.6753 18.568 17.0743 18.397 17.315 18.055C17.5683 17.7003 17.695 17.1493 17.695 16.402V7.776H21.609V16.516Z" fill="white"/>
</svg>
